<svg xmlns="http://www.w3.org/2000/svg" width="256" height="256" viewBox="4500 4500 11500 11500">  <g fill="rgb(192,252,8)">
    <g>
      <path d="M 13965 15342 l -811 -2 -37 -83 c -21 -45 -46 -101 -57 -125 -10 -23 -27 -61 -38 -85 -10 -23 -29 -64 -41 -92 -13 -27 -30 -66 -38 -85 -17 -40 -59 -132 -79 -173 -8 -16 -14 -33 -14 -39 0 -5 -18 -49 -41 -96 -79 -171 -87 -188 -104 -227 -34 -77 -52 -120 -67 -155 -8 -19 -25 -57 -37 -85 -13 -27 -28 -63 -35 -80 -12 -29 -31 -71 -76 -173 -34 -75 -56 -124 -72 -162 -19 -45 -44 -102 -72 -165 -13 -27 -33 -72 -45 -100 -13 -27 -31 -68 -41 -90 -10 -22 -26 -59 -37 -82 l -18 -43 -1972 0 c -1697 0 -1973 2 -1973 14 0 8 -6 27 -14 43 -24 49 -54 116 -100 226 -7 17 -24 55 -36 82 -23 50 -43 95 -75 170 -50 114 -100 227 -156 350 -12 28 -29 66 -37 85 -16 38 -40 94 -71 163 -10 23 -27 60 -36 82 -10 22 -28 63 -41 90 -43 95 -68 150 -80 180 -7 17 -22 53 -35 80 -12 28 -28 64 -35 80 -7 17 -22 53 -35 80 -12 28 -29 66 -37 85 -8 19 -23 53 -32 75 -10 22 -26 58 -35 80 -10 22 -26 58 -35 80 -10 22 -23 52 -29 68 l -11 27 -1236 0 c -679 0 -1234 -3 -1232 -7 2 -5 12 -26 22 -48 46 -102 66 -145 99 -215 35 -72 65 -140 112 -245 12 -27 38 -84 58 -125 34 -73 57 -123 97 -212 26 -59 59 -132 160 -353 16 -33 45 -96 66 -140 20 -44 47 -102 60 -130 12 -27 36 -79 52 -115 17 -36 43 -92 58 -125 15 -33 43 -94 62 -135 19 -41 45 -97 58 -125 12 -27 36 -79 52 -115 17 -36 41 -87 53 -115 12 -27 35 -79 52 -115 34 -73 70 -151 103 -225 12 -27 36 -79 53 -115 121 -257 141 -300 141 -307 0 -4 9 -26 19 -48 56 -117 93 -197 120 -255 17 -36 47 -101 67 -145 20 -44 47 -102 60 -130 12 -27 37 -81 54 -120 18 -38 45 -97 60 -130 38 -81 81 -175 124 -265 19 -41 47 -102 62 -135 41 -89 85 -185 106 -226 24 -49 24 -51 -19 -117 -20 -31 -45 -70 -54 -87 -25 -45 -149 -294 -149 -300 0 -3 -13 -33 -29 -67 -152 -326 -276 -875 -297 -1313 -9 -204 29 -692 56 -719 7 -7 10 -1 10 14 0 66 23 271 46 410 58 349 161 658 335 1000 84 166 120 229 202 353 209 315 471 600 779 847 96 78 270 199 339 237 19 10 52 30 74 44 22 13 119 64 215 111 283 140 530 223 850 288 235 48 389 63 645 64 238 0 371 -10 585 -45 859 -142 1624 -625 2073 -1309 77 -118 84 -130 98 -155 5 -11 25 -45 42 -77 18 -31 47 -87 66 -125 18 -37 42 -85 53 -106 34 -67 107 -264 142 -385 163 -561 151 -1222 -30 -1743 -44 -128 -122 -302 -166 -374 -7 -11 -36 -58 -65 -105 -28 -47 -62 -91 -74 -98 -21 -13 -21 -13 -14 15 62 244 86 428 92 698 5 255 -4 375 -48 590 -19 93 -102 362 -133 430 -8 17 -24 53 -36 80 -24 53 -62 118 -149 249 -158 239 -372 449 -597 587 -38 24 -78 50 -89 60 -27 23 -121 69 -141 69 -9 0 -28 7 -42 15 -47 26 -195 73 -313 99 -342 76 -714 53 -957 -60 -29 -13 -58 -24 -66 -24 -7 0 -33 -13 -57 -30 -24 -16 -47 -30 -51 -30 -14 0 -157 -104 -231 -168 -88 -76 -187 -189 -242 -277 -20 -33 -48 -76 -60 -95 -51 -77 -109 -278 -125 -433 -37 -367 125 -707 422 -882 196 -116 416 -125 617 -25 138 70 226 186 262 345 18 82 35 90 63 30 11 -22 23 -48 28 -57 4 -10 13 -49 20 -88 12 -72 1 -206 -21 -247 -5 -10 -24 -49 -43 -88 -59 -124 -196 -250 -358 -328 -126 -60 -184 -72 -360 -71 -134 1 -169 5 -255 28 -86 22 -233 85 -300 128 -87 56 -120 82 -193 152 -120 115 -184 205 -266 371 -60 122 -71 148 -94 235 -39 145 -47 213 -47 390 0 146 4 192 23 279 31 139 74 269 121 366 22 44 42 87 45 95 4 8 17 33 30 55 14 22 31 54 40 70 68 129 326 403 484 515 86 61 194 125 252 151 14 6 57 26 95 44 148 70 361 123 586 146 249 25 603 -23 884 -121 135 -47 414 -188 550 -278 66 -44 179 -125 250 -181 72 -55 133 -101 137 -101 14 0 -6 36 -70 125 -177 247 -364 427 -607 584 -55 36 -126 82 -159 103 -32 21 -67 38 -78 38 -11 0 -37 9 -57 19 -20 10 -58 27 -86 36 -27 10 -63 23 -80 30 -96 40 -298 88 -465 110 -124 17 -410 19 -530 5 -166 -21 -469 -94 -557 -135 -17 -8 -35 -15 -40 -15 -6 0 -23 -6 -39 -14 -16 -8 -45 -21 -64 -29 -338 -146 -607 -340 -1000 -722 -188 -183 -214 -204 -224 -179 -12 32 -5 105 15 160 25 67 134 282 155 305 8 8 14 19 14 24 0 14 132 185 233 301 52 61 150 162 217 225 129 121 209 211 191 217 -11 4 -192 -45 -221 -59 -8 -4 -35 -16 -60 -27 -285 -126 -535 -306 -785 -563 -204 -210 -354 -419 -476 -662 -114 -226 -203 -503 -249 -771 -43 -250 -44 -606 -4 -846 27 -158 119 -468 179 -605 331 -748 934 -1228 1715 -1365 176 -31 461 -38 630 -16 135 18 336 61 385 82 17 7 44 16 60 20 17 4 35 10 40 14 6 4 26 12 45 19 77 29 200 89 302 149 81 48 178 126 178 144 0 16 -93 3 -261 -37 -229 -55 -337 -68 -574 -68 -275 0 -433 24 -670 105 -91 31 -115 41 -170 71 -33 18 -95 48 -135 66 -153 68 -406 279 -553 461 -119 148 -243 359 -292 495 -9 28 -23 64 -30 80 -19 45 -63 229 -75 314 -22 155 -8 449 21 467 5 3 9 13 9 23 0 9 10 28 21 40 27 29 29 27 74 -119 100 -323 109 -346 153 -440 16 -36 38 -83 47 -105 18 -44 24 -54 140 -230 102 -155 321 -379 465 -474 245 -163 498 -254 784 -282 329 -32 678 42 913 194 24 15 45 27 48 27 17 0 181 135 252 207 97 99 224 283 260 379 131 350 135 585 15 914 -26 69 -37 90 -91 170 -82 119 -243 272 -344 327 -38 20 -180 63 -260 78 -43 8 -122 15 -176 15 -148 0 -150 25 -9 90 209 96 515 72 780 -61 127 -64 214 -125 319 -226 116 -112 198 -225 268 -370 29 -59 58 -117 63 -127 6 -11 23 -58 39 -104 86 -255 108 -560 63 -867 -44 -297 -114 -480 -304 -790 -164 -269 -467 -557 -750 -713 -136 -76 -380 -192 -401 -192 -8 0 -19 -4 -24 -9 -14 -14 -222 -75 -358 -105 -436 -98 -956 -64 -1445 94 -53 18 -113 39 -132 47 -19 8 -46 19 -60 25 -29 11 -76 34 -145 70 -27 14 -66 33 -85 42 -107 51 -290 175 -425 289 -138 116 -326 313 -427 449 -83 109 -169 238 -190 282 -5 11 -25 48 -43 81 -19 33 -41 76 -50 95 -9 19 -32 67 -50 105 -18 39 -37 81 -43 95 -11 29 -28 70 -42 103 -5 12 -22 58 -38 102 -16 44 -37 94 -46 110 -17 30 -17 29 -12 -60 12 -244 157 -691 322 -994 13 -25 66 -108 118 -185 312 -462 730 -808 1294 -1069 497 -230 1114 -347 1673 -317 326 17 588 57 834 126 72 20 147 40 167 44 21 4 43 12 50 17 7 6 31 16 53 23 125 40 437 181 597 269 334 185 727 497 978 776 176 195 405 509 493 675 16 30 33 60 37 65 10 13 120 231 120 239 0 3 15 38 34 78 59 126 146 376 186 532 81 321 119 594 127 907 8 323 -16 563 -87 884 -33 150 -92 361 -115 410 -7 17 -17 44 -21 60 -4 17 -10 35 -14 40 -3 6 -23 53 -44 105 -21 52 -65 148 -98 213 -68 134 -68 138 -13 247 36 72 94 193 135 285 15 33 42 92 60 130 32 69 58 127 103 228 24 52 56 123 114 247 55 120 94 205 117 255 12 28 37 82 55 120 17 39 43 95 57 125 24 53 46 99 115 248 51 109 85 184 108 237 13 28 36 79 53 115 17 36 41 88 53 115 21 48 40 90 115 250 17 39 42 93 54 120 23 51 73 159 126 273 46 99 85 183 109 237 12 28 40 88 63 135 22 47 53 113 69 148 16 34 41 90 57 125 16 34 39 85 51 112 35 79 65 145 99 218 18 37 45 95 61 130 15 34 42 91 58 127 16 36 42 92 57 125 15 33 41 89 58 125 33 72 65 141 96 212 19 41 19 47 5 52 -9 4 -198 5 -422 4 -223 -2 -771 -4 -1216 -6 z "/>
    </g>
  </g>
</svg>
